<svg xmlns="http://www.w3.org/2000/svg" xmlns:xlink="http://www.w3.org/1999/xlink" width="250" zoomAndPan="magnify" viewBox="0 0 187.5 74.999997" height="100" preserveAspectRatio="xMidYMid meet" version="1.0"><defs><g/><clipPath id="fa79f05024"><path d="M 0 0.101562 L 187 0.101562 L 187 74.898438 L 0 74.898438 Z M 0 0.101562 " clip-rule="nonzero"/></clipPath><clipPath id="72365f7ada"><path d="M 21.414062 25.535156 L 44.664062 25.535156 L 44.664062 48.785156 L 21.414062 48.785156 Z M 21.414062 25.535156 " clip-rule="nonzero"/></clipPath></defs><g clip-path="url(#fa79f05024)"><path fill="#ffffff" d="M 0 0.101562 L 187.5 0.101562 L 187.5 82.601562 L 0 82.601562 Z M 0 0.101562 " fill-opacity="1" fill-rule="nonzero"/><path fill="#ffffff" d="M 0 0.101562 L 187.5 0.101562 L 187.5 75.101562 L 0 75.101562 Z M 0 0.101562 " fill-opacity="1" fill-rule="nonzero"/><path fill="#0b0030" d="M 0 0.101562 L 187.5 0.101562 L 187.5 75.101562 L 0 75.101562 Z M 0 0.101562 " fill-opacity="1" fill-rule="nonzero"/></g><g fill="#ffffff" fill-opacity="1"><g transform="translate(24.797929, 46.599727)"><g><path d="M 10.15625 -18.765625 C 12.84375 -18.765625 15.128906 -17.816406 17.015625 -15.921875 C 18.910156 -14.023438 19.859375 -11.734375 19.859375 -9.046875 C 19.859375 -6.359375 18.910156 -4.066406 17.015625 -2.171875 C 15.128906 -0.273438 12.84375 0.671875 10.15625 0.671875 C 7.46875 0.671875 5.175781 -0.273438 3.28125 -2.171875 C 1.382812 -4.066406 0.4375 -6.359375 0.4375 -9.046875 C 0.4375 -11.734375 1.382812 -14.023438 3.28125 -15.921875 C 5.175781 -17.816406 7.46875 -18.765625 10.15625 -18.765625 Z M 14.15625 -5.046875 C 15.257812 -6.148438 15.8125 -7.484375 15.8125 -9.046875 C 15.8125 -10.609375 15.257812 -11.941406 14.15625 -13.046875 C 13.050781 -14.148438 11.71875 -14.703125 10.15625 -14.703125 C 8.582031 -14.703125 7.242188 -14.148438 6.140625 -13.046875 C 5.046875 -11.941406 4.5 -10.609375 4.5 -9.046875 C 4.5 -7.484375 5.046875 -6.148438 6.140625 -5.046875 C 7.285156 -3.941406 8.625 -3.390625 10.15625 -3.390625 C 11.675781 -3.390625 13.007812 -3.941406 14.15625 -5.046875 Z M 14.15625 -5.046875 "/></g></g></g><g fill="#ffffff" fill-opacity="1"><g transform="translate(45.092456, 46.599727)"><g><path d="M 13.1875 -18.84375 L 17.71875 -18.84375 L 17.71875 0 L 5.21875 -9.1875 L 5.21875 0 L 0.703125 0 L 0.703125 -18.84375 L 13.1875 -9.21875 Z M 13.1875 -18.84375 "/></g></g></g><g fill="#ffffff" fill-opacity="1"><g transform="translate(63.502485, 46.599727)"><g><path d="M 5.390625 -7.390625 L 5.390625 -4.0625 L 14.03125 -4.0625 L 14.03125 0 L 0.875 0 L 0.875 -18.84375 L 14.03125 -18.84375 L 14.03125 -14.796875 L 5.390625 -14.796875 L 5.390625 -11.453125 L 12.734375 -11.453125 L 12.734375 -7.390625 Z M 5.390625 -7.390625 "/></g></g></g><g fill="#ffffff" fill-opacity="1"><g transform="translate(78.404465, 46.599727)"><g><path d="M 12.53125 -14.796875 L 5.390625 -14.796875 L 5.390625 -11.453125 L 10.703125 -11.453125 L 10.703125 -7.390625 L 5.390625 -7.390625 L 5.390625 0 L 0.875 0 L 0.875 -18.84375 L 12.53125 -18.84375 Z M 12.53125 -14.796875 "/></g></g></g><g fill="#ffffff" fill-opacity="1"><g transform="translate(91.798846, 46.599727)"><g><path d="M 5.390625 -4.0625 L 14.46875 -4.0625 L 14.46875 0 L 0.875 0 L 0.875 -18.84375 L 5.390625 -18.84375 Z M 5.390625 -4.0625 "/></g></g></g><g fill="#ffffff" fill-opacity="1"><g transform="translate(106.613851, 46.599727)"><g><path d="M 5.390625 -7.390625 L 5.390625 -4.0625 L 14.03125 -4.0625 L 14.03125 0 L 0.875 0 L 0.875 -18.84375 L 14.03125 -18.84375 L 14.03125 -14.796875 L 5.390625 -14.796875 L 5.390625 -11.453125 L 12.734375 -11.453125 L 12.734375 -7.390625 Z M 5.390625 -7.390625 "/></g></g></g><g fill="#ffffff" fill-opacity="1"><g transform="translate(121.515831, 46.599727)"><g><path d="M 5.390625 -7.390625 L 5.390625 -4.0625 L 14.03125 -4.0625 L 14.03125 0 L 0.875 0 L 0.875 -18.84375 L 14.03125 -18.84375 L 14.03125 -14.796875 L 5.390625 -14.796875 L 5.390625 -11.453125 L 12.734375 -11.453125 L 12.734375 -7.390625 Z M 5.390625 -7.390625 "/></g></g></g><g fill="#ffffff" fill-opacity="1"><g transform="translate(136.417811, 46.599727)"><g><path d="M 15.203125 -14.328125 L 10.296875 -14.328125 L 10.296875 0 L 5.765625 0 L 5.765625 -14.328125 L 0.875 -14.328125 L 0.875 -18.84375 L 15.203125 -18.84375 Z M 15.203125 -14.328125 "/></g></g></g><g clip-path="url(#72365f7ada)"><path fill="#ffffff" d="M 33.039062 25.535156 C 26.621094 25.535156 21.414062 30.738281 21.414062 37.160156 C 21.414062 43.578125 26.621094 48.785156 33.039062 48.785156 C 39.460938 48.785156 44.664062 43.578125 44.664062 37.160156 C 44.664062 30.738281 39.460938 25.535156 33.039062 25.535156 " fill-opacity="1" fill-rule="nonzero"/></g><path stroke-linecap="butt" transform="matrix(2.981023, 0, 0, 3, 21.416014, 37.192119)" fill="none" stroke-linejoin="miter" d="M -0.000654713 -0.000237704 L 4.043154 -0.000237704 " stroke="#021d27" stroke-width="1" stroke-opacity="1" stroke-miterlimit="4"/><path stroke-linecap="round" transform="matrix(2.981023, 0, 0, 3, 41.667957, 37.192119)" fill-opacity="1" fill="#021d27" fill-rule="nonzero" stroke-linejoin="round" d="M -2.500186 -1.500238 L -0.500558 -0.000237704 L -2.500186 1.499762 Z M -2.500186 -1.500238 " stroke="#021d27" stroke-width="1" stroke-opacity="1" stroke-miterlimit="4"/></svg>